<?xml version="1.0" encoding="utf-8" ?><svg xmlns="http://www.w3.org/2000/svg" xmlns:xlink="http://www.w3.org/1999/xlink" width="1024" height="866" viewBox="0 0 1024 866"><path fill="#267CE8" transform="scale(1.22782 1.22837)" d="M489.706 13.2067C513.1 12.6429 524.37 18.0338 544.172 28.9645C554.812 34.8361 565.417 40.7692 575.987 46.7636L623.161 73.1911C633.304 78.8802 648.205 86.8557 656.949 93.5265C671.572 105.278 682.878 124.059 684.772 142.967C686.008 155.312 685.416 169.689 685.393 182.229L685.338 250.826L685.372 355.084C685.386 379.657 686.782 409.077 682.106 432.796C676.384 462.128 663.833 489.701 645.471 513.279C633.909 528.118 620.199 541.15 604.793 551.945C599.457 555.614 592.954 559.009 587.227 562.165L566.349 573.782L490.325 615.505L413.405 657.834C399.048 665.782 384.576 674.467 369.744 681.506C361.213 685.555 353.186 686.736 343.986 687.847C332.319 688.503 320.643 686.73 309.696 682.642C302.173 679.825 294.507 675.213 287.459 671.242L257.212 654.164C240.589 644.968 224.014 635.685 207.487 626.316C195.999 619.8 184.133 614.106 174.269 605.49C159.003 592.157 148.609 570.188 147.986 549.859C147.55 535.622 147.847 520.109 147.85 505.672L147.819 420.403L147.85 329.093C147.849 311.72 147.537 293.949 147.964 276.627C148.835 241.274 164.137 204.197 187.556 177.955C196.521 167.737 206.83 158.783 218.202 151.337C230.128 143.488 249.672 133.624 262.396 126.64L347.136 80.1888L415.637 42.4394C426.276 36.5407 437.001 30.7695 447.666 24.9431C461.784 17.2313 473.721 14.1313 489.706 13.2067Z"/><path fill="#DFEBF8" transform="scale(1.22782 1.22837)" d="M613.495 108.907C639.009 107.532 658.622 124.065 659.007 150.133C659.296 169.703 659.07 189.298 659.027 208.873L658.981 311.995L658.979 374.656C658.999 389.22 659.565 405.923 657.663 420.157C654.856 440.488 648.093 460.071 637.755 477.8C627.209 496.602 612.965 513.072 595.883 526.22C582.911 536.108 560.086 547.955 545.057 556.264L458.95 603.539C442.262 612.72 424.832 621.959 408.333 631.293L379.778 647.24C369.407 653.004 362.467 657.913 350.887 661.072C348.507 661.531 346.107 661.876 343.694 662.106C330.104 663.339 318.471 658.454 311.429 646.575C304.438 634.784 305.278 622.415 305.272 609.35L305.276 581.135L305.279 494.036L305.275 391.715C305.274 375.882 304.891 359.441 305.383 343.65C306.281 314.832 318.799 285.614 337.486 263.791C345.51 254.416 354.806 246.209 365.103 239.409C376.044 232.304 394.739 222.713 406.481 216.271L480.987 175.344L553.336 135.593C562.924 130.31 572.634 125.059 582.183 119.72C592.951 113.7 600.889 109.871 613.495 108.907Z"/><path fill="#267CE8" transform="scale(1.22782 1.22837)" d="M552.617 209.449C565.11 207.756 577.011 214.204 580.608 226.634C581.546 229.836 582.105 233.137 582.272 236.469C582.785 245.918 582.378 259.542 582.378 269.236L582.37 332.988L582.442 374.561C582.631 402.737 583.481 422.16 569.367 447.751C562.379 460.393 552.917 471.497 541.545 480.402C532.899 487.216 520.709 493.139 510.906 498.439L474.59 518.454L440.699 537.17C433.771 541.003 422.024 548.001 414.837 550.08C402.908 553.084 391.698 547.444 387.562 535.75C384.356 526.684 385.506 515.189 385.506 505.527L385.503 457.709L385.489 384.03C385.478 371.4 384.815 351.092 386.661 339.194C388.761 325.465 393.966 312.396 401.878 300.981C413.272 284.362 424.519 277.582 441.566 267.97L473.202 250.472L517.941 225.743C528.235 220.087 541.263 211.555 552.617 209.449Z"/><path fill="#DFEBF8" transform="scale(1.22782 1.22837)" d="M554.979 341.691C555.336 341.919 555.337 342.07 555.594 342.494C556.042 350.455 555.806 362.581 555.705 370.915C555.529 385.446 556.982 404.382 553.345 418.079C549.45 432.427 541.606 445.394 530.705 455.504C519.85 465.527 497.742 475.964 484.069 483.644C460.488 496.888 436.159 509.447 412.706 522.991L411.812 522.863C411.407 520.181 411.547 514.367 411.563 511.472L411.658 492.343L411.61 419.915C419.924 415.981 426.783 412.012 434.772 407.687C446.115 401.668 457.389 395.518 468.59 389.239L554.979 341.691Z"/><path fill="#DFEBF8" transform="scale(1.22782 1.22837)" d="M552.331 234.96C554.485 235.301 556.551 237.371 556.614 239.633C557.281 263.444 556.174 287.348 557.115 311.166C552.421 313.443 547.786 316.269 543.172 318.742C500.165 341.793 457.862 366.802 414.633 389.386L411.35 391.177C411.218 382.756 411.206 373.815 411.267 365.434C411.442 351.358 409.942 338.875 415.225 325.394C423.561 304.124 440.103 297.043 458.571 286.899L494.563 266.917C509.559 258.614 524.638 250.506 539.452 241.88C543.628 239.448 547.927 236.939 552.331 234.96Z"/><path fill="#DFEBF8" transform="scale(1.22782 1.22837)" d="M488.102 39.2607C496.474 38.3596 504.941 39.2681 512.931 41.9247C521.728 44.8835 531.398 51.0393 539.748 55.6788L591.66 84.9511C586.978 87.3272 581.602 90.517 576.905 93.08L537.206 114.931L416.066 181.45L377.926 202.235C358.394 212.908 342.907 220.761 326.811 236.812C304.868 258.696 290.149 285.333 283.042 315.474C278.522 334.641 279.262 351.024 279.267 370.329L279.289 415.328L279.281 566.374L279.27 620.635C279.272 623.769 279.266 626.886 279.365 630.019C279.422 631.805 280.411 636.017 279.563 637.418L278.661 636.993C273.11 633.535 265.688 629.62 259.852 626.32L219.561 603.651C211.953 599.35 199.869 592.943 193.469 587.758C182.647 578.907 175.732 566.162 174.212 552.264C173.026 540.881 173.765 518.934 173.753 506.814L173.698 417.79L173.706 320.735C173.715 306.328 173.307 291.177 173.817 276.838C174.844 247.95 186.862 219.785 204.924 197.517C212.379 188.485 221.121 180.598 230.871 174.11C244.429 165.13 265.192 154.596 280.057 146.445L364.951 99.9187C391.081 85.7307 416.953 71.0634 443.173 57.026C459.988 48.0244 468.061 41.3697 488.102 39.2607Z"/></svg>